HIERARCHY
ROOT Root
{
  OFFSET 0.0 0.0 0.0
  CHANNELS 6 Xposition Yposition Zposition Zrotation Yrotation Xrotation
  JOINT Hips
  {
    OFFSET 0.0 100.0 0.0
    CHANNELS 6 Xposition Yposition Zposition Zrotation Yrotation Xrotation
    JOINT Spine1
    {
      OFFSET -0.013727 5.003763 -0.053727
      CHANNELS 3 Zrotation Yrotation Xrotation
      JOINT Spine2
      {
        OFFSET -0.0 7.125301 -0.029825
        CHANNELS 3 Zrotation Yrotation Xrotation
        JOINT Chest
        {
          OFFSET -1e-06 7.550063 -0.815971
          CHANNELS 3 Zrotation Yrotation Xrotation
          JOINT Neck1
          {
            OFFSET -0.181677 26.311295 -0.553348
            CHANNELS 3 Zrotation Yrotation Xrotation
            JOINT Neck2
            {
              OFFSET -3e-06 7.709397 2.302585
              CHANNELS 3 Zrotation Yrotation Xrotation
              JOINT Head
              {
                OFFSET -5e-06 6.128916 1.953709
                CHANNELS 3 Zrotation Yrotation Xrotation
                JOINT HeadEnd
                {
                  OFFSET 0.003598 16.065403 -1.835379
                  CHANNELS 3 Zrotation Yrotation Xrotation
                }
                JOINT Jaw
                {
                  OFFSET 0.002637 0.475592 3.094941
                  CHANNELS 3 Zrotation Yrotation Xrotation
                }
                JOINT LeftEye
                {
                  OFFSET 3.206381 5.380205 7.586883
                  CHANNELS 3 Zrotation Yrotation Xrotation
                }
                JOINT RightEye
                {
                  OFFSET -3.22244 5.361869 7.558234
                  CHANNELS 3 Zrotation Yrotation Xrotation
                }
              }
            }
          }
          JOINT LeftShoulder
          {
            OFFSET 1.621652 23.237164 5.113413
            CHANNELS 3 Zrotation Yrotation Xrotation
            JOINT LeftArm
            {
              OFFSET 14.919846 2e-06 -5.502326
              CHANNELS 3 Zrotation Yrotation Xrotation
              JOINT LeftForeArm
              {
                OFFSET 28.739307 0.0 -0.002588
                CHANNELS 3 Zrotation Yrotation Xrotation
                JOINT LeftHand
                {
                  OFFSET 27.093981 -1e-06 0.002609
                  CHANNELS 3 Zrotation Yrotation Xrotation
                  JOINT LeftHandThumb1
                  {
                    OFFSET 2.276482 -1.392045 3.191413
                    CHANNELS 3 Zrotation Yrotation Xrotation
                    JOINT LeftHandThumb2
                    {
                      OFFSET 4.012836 -1.828127 1.641654
                      CHANNELS 3 Zrotation Yrotation Xrotation
                      JOINT LeftHandThumb3
                      {
                        OFFSET 2.798515 0.0 -3e-06
                        CHANNELS 3 Zrotation Yrotation Xrotation
                        JOINT LeftHandThumbEnd
                        {
                          OFFSET 3.180793 -4e-06 4e-06
                          CHANNELS 3 Zrotation Yrotation Xrotation
                        }
                      }
                    }
                  }
                  JOINT LeftHandIndex1
                  {
                    OFFSET 3.247555 -0.531998 2.296169
                    CHANNELS 3 Zrotation Yrotation Xrotation
                    JOINT LeftHandIndex2
                    {
                      OFFSET 6.364578 0.01206 0.1786
                      CHANNELS 3 Zrotation Yrotation Xrotation
                      JOINT LeftHandIndex3
                      {
                        OFFSET 3.662364 0.0 0.0
                        CHANNELS 3 Zrotation Yrotation Xrotation
                        JOINT LeftHandIndex4
                        {
                          OFFSET 2.329242 4e-06 4e-06
                          CHANNELS 3 Zrotation Yrotation Xrotation
                          JOINT LeftHandIndexEnd
                          {
                            OFFSET 2.759615 -0.180537 -0.113024
                            CHANNELS 3 Zrotation Yrotation Xrotation
                          }
                        }
                      }
                    }
                  }
                  JOINT LeftHandMiddle1
                  {
                    OFFSET 3.163495 0.240981 1.000332
                    CHANNELS 3 Zrotation Yrotation Xrotation
                    JOINT LeftHandMiddle2
                    {
                      OFFSET 6.19078 -0.259278 -1.002548
                      CHANNELS 3 Zrotation Yrotation Xrotation
                      JOINT LeftHandMiddle3
                      {
                        OFFSET 4.35652 -4e-06 -1e-06
                        CHANNELS 3 Zrotation Yrotation Xrotation
                        JOINT LeftHandMiddle4
                        {
                          OFFSET 2.996877 -8e-06 0.0
                          CHANNELS 3 Zrotation Yrotation Xrotation
                          JOINT LeftHandMiddleEnd
                          {
                            OFFSET 2.304287 -0.294569 -0.031741
                            CHANNELS 3 Zrotation Yrotation Xrotation
                          }
                        }
                      }
                    }
                  }
                  JOINT LeftHandRing1
                  {
                    OFFSET 2.882643 -0.053652 -0.322543
                    CHANNELS 3 Zrotation Yrotation Xrotation
                    JOINT LeftHandRing2
                    {
                      OFFSET 5.854541 -0.486202 -1.373841
                      CHANNELS 3 Zrotation Yrotation Xrotation
                      JOINT LeftHandRing3
                      {
                        OFFSET 4.350578 0.0 3e-06
                        CHANNELS 3 Zrotation Yrotation Xrotation
                        JOINT LeftHandRing4
                        {
                          OFFSET 2.651321 7e-06 2e-06
                          CHANNELS 3 Zrotation Yrotation Xrotation
                          JOINT LeftHandRingEnd
                          {
                            OFFSET 1.936105 0.077687 -7.1e-05
                            CHANNELS 3 Zrotation Yrotation Xrotation
                          }
                        }
                      }
                    }
                  }
                  JOINT LeftHandPinky1
                  {
                    OFFSET 2.8655 -0.310005 -1.600378
                    CHANNELS 3 Zrotation Yrotation Xrotation
                    JOINT LeftHandPinky2
                    {
                      OFFSET 5.087849 -1.331141 -1.77123
                      CHANNELS 3 Zrotation Yrotation Xrotation
                      JOINT LeftHandPinky3
                      {
                        OFFSET 3.070974 4e-06 0.0
                        CHANNELS 3 Zrotation Yrotation Xrotation
                        JOINT LeftHandPinky4
                        {
                          OFFSET 1.549672 0.0 1e-06
                          CHANNELS 3 Zrotation Yrotation Xrotation
                          JOINT LeftHandPinkyEnd
                          {
                            OFFSET 1.944893 -0.157802 0.057219
                            CHANNELS 3 Zrotation Yrotation Xrotation
                          }
                        }
                      }
                    }
                  }
                }
              }
            }
          }
          JOINT RightShoulder
          {
            OFFSET -1.380118 23.180309 5.214158
            CHANNELS 3 Zrotation Yrotation Xrotation
            JOINT RightArm
            {
              OFFSET -15.037196 1.2e-05 -5.545604
              CHANNELS 3 Zrotation Yrotation Xrotation
              JOINT RightForeArm
              {
                OFFSET -28.736639 2e-06 -0.002597
                CHANNELS 3 Zrotation Yrotation Xrotation
                JOINT RightHand
                {
                  OFFSET -27.133619 -0.0 0.002613
                  CHANNELS 3 Zrotation Yrotation Xrotation
                  JOINT RightHandThumb1
                  {
                    OFFSET -2.274032 -1.383988 3.163127
                    CHANNELS 3 Zrotation Yrotation Xrotation
                    JOINT RightHandThumb2
                    {
                      OFFSET -4.011429 -1.827466 1.640914
                      CHANNELS 3 Zrotation Yrotation Xrotation
                      JOINT RightHandThumb3
                      {
                        OFFSET -2.794935 -4e-06 -3e-06
                        CHANNELS 3 Zrotation Yrotation Xrotation
                        JOINT RightHandThumbEnd
                        {
                          OFFSET -3.183852 4e-06 1e-06
                          CHANNELS 3 Zrotation Yrotation Xrotation
                        }
                      }
                    }
                  }
                  JOINT RightHandIndex1
                  {
                    OFFSET -3.253266 -0.520057 2.282866
                    CHANNELS 3 Zrotation Yrotation Xrotation
                    JOINT RightHandIndex2
                    {
                      OFFSET -6.341917 0.012471 0.178266
                      CHANNELS 3 Zrotation Yrotation Xrotation
                      JOINT RightHandIndex3
                      {
                        OFFSET -3.654871 -8e-06 -0.0
                        CHANNELS 3 Zrotation Yrotation Xrotation
                        JOINT RightHandIndex4
                        {
                          OFFSET -2.327586 0.0 1e-06
                          CHANNELS 3 Zrotation Yrotation Xrotation
                          JOINT RightHandIndexEnd
                          {
                            OFFSET -2.76179 -0.180656 -0.113078
                            CHANNELS 3 Zrotation Yrotation Xrotation
                          }
                        }
                      }
                    }
                  }
                  JOINT RightHandMiddle1
                  {
                    OFFSET -3.168106 0.246593 1.00103
                    CHANNELS 3 Zrotation Yrotation Xrotation
                    JOINT RightHandMiddle2
                    {
                      OFFSET -6.180828 -0.258836 -1.000895
                      CHANNELS 3 Zrotation Yrotation Xrotation
                      JOINT RightHandMiddle3
                      {
                        OFFSET -4.348901 0.0 -0.0
                        CHANNELS 3 Zrotation Yrotation Xrotation
                        JOINT RightHandMiddle4
                        {
                          OFFSET -3.00024 -4e-06 -2e-06
                          CHANNELS 3 Zrotation Yrotation Xrotation
                          JOINT RightHandMiddleEnd
                          {
                            OFFSET -2.30252 -0.29437 -0.031706
                            CHANNELS 3 Zrotation Yrotation Xrotation
                          }
                        }
                      }
                    }
                  }
                  JOINT RightHandRing1
                  {
                    OFFSET -2.88569 -0.067952 -0.308858
                    CHANNELS 3 Zrotation Yrotation Xrotation
                    JOINT RightHandRing2
                    {
                      OFFSET -5.854198 -0.48613 -1.373731
                      CHANNELS 3 Zrotation Yrotation Xrotation
                      JOINT RightHandRing3
                      {
                        OFFSET -4.33881 -4e-06 -0.0
                        CHANNELS 3 Zrotation Yrotation Xrotation
                        JOINT RightHandRing4
                        {
                          OFFSET -2.654903 -4e-06 4e-06
                          CHANNELS 3 Zrotation Yrotation Xrotation
                          JOINT RightHandRingEnd
                          {
                            OFFSET -1.933568 0.077527 -5.2e-05
                            CHANNELS 3 Zrotation Yrotation Xrotation
                          }
                        }
                      }
                    }
                  }
                  JOINT RightHandPinky1
                  {
                    OFFSET -2.866425 -0.342796 -1.584145
                    CHANNELS 3 Zrotation Yrotation Xrotation
                    JOINT RightHandPinky2
                    {
                      OFFSET -5.091371 -1.332055 -1.772385
                      CHANNELS 3 Zrotation Yrotation Xrotation
                      JOINT RightHandPinky3
                      {
                        OFFSET -3.062664 -4e-06 1e-06
                        CHANNELS 3 Zrotation Yrotation Xrotation
                        JOINT RightHandPinky4
                        {
                          OFFSET -1.546529 4e-06 -2e-06
                          CHANNELS 3 Zrotation Yrotation Xrotation
                          JOINT RightHandPinkyEnd
                          {
                            OFFSET -1.945119 -0.157718 0.057211
                            CHANNELS 3 Zrotation Yrotation Xrotation
                          }
                        }
                      }
                    }
                  }
                }
              }
            }
          }
        }
      }
    }
    JOINT LeftLeg
    {
      OFFSET 10.043214 -8.434526 2.595655
      CHANNELS 3 Zrotation Yrotation Xrotation
      JOINT LeftShin
      {
        OFFSET -1e-06 -43.221752 -0.802913
        CHANNELS 3 Zrotation Yrotation Xrotation
        JOINT LeftFoot
        {
          OFFSET 1e-06 -42.155094 -3.481523
          CHANNELS 3 Zrotation Yrotation Xrotation
          JOINT LeftToeBase
          {
            OFFSET 0.0 -5.059472 13.231529
            CHANNELS 3 Zrotation Yrotation Xrotation
            JOINT LeftToeEnd
            {
              OFFSET -0.009607 -1.647619 6.513017
              CHANNELS 3 Zrotation Yrotation Xrotation
            }
          }
        }
      }
    }
    JOINT RightLeg
    {
      OFFSET -10.047278 -8.29526 2.620317
      CHANNELS 3 Zrotation Yrotation Xrotation
      JOINT RightShin
      {
        OFFSET 1e-06 -43.362206 -0.805556
        CHANNELS 3 Zrotation Yrotation Xrotation
        JOINT RightFoot
        {
          OFFSET 2e-06 -42.117393 -3.478398
          CHANNELS 3 Zrotation Yrotation Xrotation
          JOINT RightToeBase
          {
            OFFSET -0.0 -5.079609 13.284196
            CHANNELS 3 Zrotation Yrotation Xrotation
            JOINT RightToeEnd
            {
              OFFSET 0.009532 -1.634378 6.460591
              CHANNELS 3 Zrotation Yrotation Xrotation
            }
          }
        }
      }
    }
  }
}
MOTION
Frames: 4
Frame Time: 0.03333333333333333
-1.052348 0.0 -5.449076 0.0 -0.2135 0.0 0.0 99.798981 0.0 0.972605 0.034087 -2.013039 -0.644794 -0.178566 -2.805236 -0.762741 0.353321 -5.693813 -1.718394 -1.922123 13.356665 3.341372 1.842843 -5.416923 -1.679483 -2.541603 -3.700467 0.480876 -3.970715 -2.17722 0.000122 -8.1e-05 0.00307 -0.010616 0.039679 -0.116568 0.648095 -3.702758 -10.804335 -0.68038 3.782043 -10.713965 -10.089105 1.707246 14.830149 -37.676353 -16.521971 37.488033 16.512733 -88.707298 -15.540181 0.701029 7.450369 37.99926 -5.88901 9.790965 0.84788 -10.913009 -0.357543 7.192612 -0.001416 8.788764 -0.014486 -15.238315 18.377234 6.585964 -1.834048 2.521107 -2.511861 -10.200442 4.675671 4.603529 -21.022154 0.001844 0.009599 -21.274139 2.456883 -3.609741 0.0024 0.002907 -0.011357 -1.366592 2.271528 -0.759986 -21.381592 0.555017 3.008016 -13.858777 -0.00702 -0.005329 -23.976171 -0.285364 -0.852862 -59.703716 2.705408 -1.244992 -0.30583 1.701714 0.818992 -14.22357 0.080488 1.306782 -34.269043 -0.289233 0.976619 -20.053825 0.964485 1.214446 -0.000976 -0.006638 -0.009578 -3.476975 0.793413 0.474076 -15.941135 -3.17571 3.000774 -6.336063 -0.001631 0.00404 -18.170895 3.635408 -4.915074 -0.004711 0.006944 0.001198 15.558928 3.489027 15.339704 53.497654 5.325345 11.884819 5.253473 81.375427 6.345356 2.894625 -6.000324 23.233849 2.25055 -5.202409 -3.086228 14.305718 -0.834686 6.978323 -0.003434 -12.704876 0.005167 15.151057 -18.091103 2.823684 1.673498 -1.958256 -2.885055 4.728752 -4.1863 4.987876 11.035308 -0.002399 0.008162 12.146746 -3.749804 -2.896524 0.000724 0.002125 0.003471 1.303797 -1.946765 -1.495019 14.815336 0.570909 3.860075 14.247797 -1.349663 -6.668773 19.649796 0.148432 -0.655664 49.753937 -0.551625 -6.568726 0.356502 -1.538018 -0.033752 20.242643 3.713979 2.319454 18.820488 -0.000591 0.000356 10.759317 -0.473825 1.396469 -0.001779 -0.004047 -0.000567 3.297729 0.271704 -0.581881 21.498682 11.870604 2.26158 8.168127 -0.000286 0.010793 18.441059 -3.798693 -4.950537 -2.5e-05 -5.5e-05 0.000929 3.421855 4.395098 -6.624249 0.130224 -0.106673 11.163108 -5.764127 6.403677 -2.366054 1.618762 -2.036211 -0.417398 -0.000659 -0.002213 -0.007201 -8.349433 -2.186713 2.484482 0.051538 0.151999 3.083062 9.612018 -2.927502 -4.100163 -1.423717 0.905085 -0.258092 0.000839 0.000102 0.0019 
-1.009873 0.0 -5.486415 0.0 -0.531934 0.0 0.0 99.841705 0.0 0.987609 0.037998 -2.22193 -0.745553 -0.197186 -2.728271 -0.816619 0.238016 -5.610711 -1.680932 -1.823485 13.317864 3.685533 1.665943 -5.112052 -1.645334 -2.365396 -3.699762 0.372182 -3.810955 -2.885819 -0.000485 0.001585 0.002818 -0.001456 0.034308 -0.109067 0.648479 -3.689889 -10.746081 -0.661664 3.764312 -10.682351 -8.568922 1.795516 14.310315 -36.263088 -16.568697 32.045895 -178.548798 -79.645142 179.58847 1.904223 8.511323 39.232658 -5.947903 9.800335 0.787745 -10.973187 -0.355944 7.158473 0.005521 8.783468 -0.003504 -15.548325 18.654858 6.552041 -1.833534 2.485159 -2.50916 -10.163742 4.687606 4.625412 -20.972885 0.002408 0.020137 -21.205488 2.462287 -3.593694 -0.002759 -0.000952 0.000553 -1.34416 2.229378 -0.747577 -21.352423 0.586284 3.030497 -13.823166 0.00761 0.020521 -23.883839 -0.232441 -0.82281 -59.982887 2.898025 -1.354126 -0.28109 1.671769 0.829504 -14.221787 0.097531 1.315278 -34.167976 -0.281076 1.001683 -20.012428 0.976733 1.223681 0.002282 0.0039 0.002338 -3.425928 0.798488 0.507672 -15.932308 -3.194744 3.013556 -6.335991 -0.006408 0.002158 -18.101782 3.65748 -4.882013 -0.000324 0.005634 -0.005503 14.619292 3.102668 14.97575 52.255123 5.835982 10.086654 153.64592 87.430367 155.032394 3.4862 -6.623123 22.654615 2.264769 -5.25996 -3.118412 14.278111 -0.858938 6.986247 -0.008368 -12.694896 0.020571 14.82467 -17.943108 2.982213 1.663194 -1.944945 -2.895909 4.701317 -4.164174 5.010472 11.023487 0.006056 0.000775 12.107178 -3.722261 -2.845619 -0.008419 -0.00045 -0.001497 1.272942 -1.927346 -1.496871 14.804408 0.590054 3.873216 14.225498 -1.32213 -6.64197 19.595615 0.159963 -0.620481 49.43803 -0.624764 -6.394255 0.333158 -1.501609 -0.032014 20.207987 3.691027 2.319931 18.781223 0.01051 0.014317 10.750374 -0.485285 1.399984 -0.000993 0.010117 0.001213 3.239102 0.338146 -0.580266 21.497822 11.825032 2.24865 8.145561 0.004856 0.014905 18.367472 -3.795064 -4.918844 -0.002677 0.010347 -0.002699 3.417223 4.796178 -6.050216 0.091626 -0.167013 10.530452 -5.503324 6.471127 -2.027917 1.613728 -2.070431 -0.61577 0.000111 0.002102 0.00039 -8.207358 -2.211504 3.194079 0.031364 0.112043 2.465727 9.316487 -2.509778 -3.882604 -1.41885 0.893457 -0.440433 -0.000196 0.000343 0.001539 
-0.884294 0.0 -5.55562 0.0 -0.949154 0.0 0.0 99.856911 0.0 1.11574 0.046662 -2.429726 -0.884171 -0.202333 -2.675635 -0.874478 0.101266 -5.605912 -1.673348 -1.719493 13.403564 4.080749 1.582909 -4.559233 -1.621577 -2.234133 -3.73314 0.298657 -3.580853 -3.626001 0.001094 0.001831 -0.00673 -0.001191 0.018482 -0.092876 0.648845 -3.706778 -10.746532 -0.662377 3.741542 -10.688972 -7.647901 1.654181 13.682097 -35.198048 -17.867535 25.331404 -178.222534 -69.385803 179.24472 3.75843 9.11477 40.938942 -5.855244 9.860991 0.779772 -10.876771 -0.332211 7.187999 0.001473 8.760828 0.004472 -16.072107 19.078632 6.483354 -1.853421 2.493867 -2.52319 -10.182929 4.678564 4.616296 -20.997135 -0.028338 -0.006688 -21.281404 2.425124 -3.602864 0.009416 0.001811 0.008676 -1.373439 2.234638 -0.759839 -21.35705 0.564955 2.998745 -13.860962 -0.002114 -0.006079 -23.942137 -0.290457 -0.867616 -61.075676 2.769646 -1.492669 -0.302741 1.655654 0.823951 -14.23938 0.103557 1.279042 -34.258617 -0.314246 0.953842 -20.078827 0.962961 1.232422 -0.00199 -0.001205 0.008247 -3.472991 0.778677 0.47063 -15.939092 -3.172703 2.996372 -6.361979 -0.008603 -0.008149 -18.148041 3.622022 -4.914331 0.003609 0.00186 4e-06 14.007769 2.888916 14.639056 50.870945 7.423415 7.309154 172.376297 77.05352 173.803223 3.808327 -6.783872 22.358267 2.20284 -5.271491 -3.110191 14.310779 -0.832671 6.991197 -0.001284 -12.679384 0.008503 14.703791 -17.927481 2.987808 1.663694 -1.959914 -2.881144 4.739045 -4.166176 4.986791 11.036124 -0.011498 -0.017874 12.126605 -3.752486 -2.87552 -0.002944 0.000899 0.00341 1.308302 -1.920083 -1.495168 14.781418 0.550499 3.856275 14.229372 -1.327055 -6.674801 19.617491 0.114776 -0.664719 49.309566 -0.74302 -6.547754 0.369449 -1.504924 -0.024547 20.207554 3.661149 2.29383 18.794027 0.004125 -0.008136 10.752005 -0.501393 1.393365 -0.003741 0.009067 -0.001018 3.288363 0.307622 -0.57899 21.45439 11.832393 2.239285 8.166051 -0.007991 0.004959 18.383324 -3.814755 -4.950393 -2e-06 0.010345 -0.002529 3.275241 4.962356 -5.517814 0.05077 -0.187103 10.081929 -5.426761 6.556304 -1.956229 1.6177 -2.082925 -0.730946 -0.000584 -0.00022 -0.003617 -8.353673 -2.020827 3.477677 0.016763 0.064106 2.374588 9.30636 -2.046622 -3.904938 -1.407907 0.89309 -0.599252 -0.00087 -0.002092 0.003959 
-0.677023 0.0 -5.586685 0.0 -1.492685 0.0 0.0 99.828323 0.0 1.279033 0.058503 -2.676441 -1.018442 -0.163327 -2.659673 -0.920505 -0.056281 -5.575747 -1.721549 -1.698138 13.369732 4.493725 1.504939 -3.810803 -1.562032 -2.075134 -3.798878 0.169119 -3.206484 -4.090709 0.001005 0.000312 0.00109 -0.000724 -0.000728 -0.067603 0.660379 -3.722356 -10.755576 -0.675299 3.725936 -10.692459 -6.907849 1.156015 12.78358 -34.76458 -20.917437 17.204706 -178.771713 -62.202534 179.734268 7.196729 8.924878 43.057331 -5.904572 9.843087 0.738526 -10.956086 -0.325771 7.15404 9.4e-05 8.758954 0.00219 -16.611704 19.605499 6.640255 -1.842613 2.494417 -2.51014 -10.178248 4.700395 4.623787 -21.028257 0.009742 0.000687 -21.262667 2.486039 -3.596542 -0.011123 0.004893 -0.005124 -1.367186 2.260533 -0.742401 -21.343494 0.59863 3.005996 -13.833715 0.004028 0.009307 -23.881243 -0.225583 -0.843823 -62.698063 2.897972 -1.66592 -0.298181 1.715629 0.841073 -14.22357 0.077615 1.304551 -34.238529 -0.286144 0.982386 -20.04421 0.982329 1.220772 -0.002149 -0.003084 -0.000277 -3.463072 0.838842 0.503035 -15.925399 -3.202684 3.003097 -6.351608 -0.005811 0.003914 -18.157505 3.668675 -4.91364 -0.0177 -0.001535 0.001758 13.310382 2.91905 13.648028 49.505028 10.147345 3.409835 175.1436 67.801437 176.483505 4.077911 -6.565496 22.132992 2.227398 -5.234649 -3.201816 14.275282 -0.823862 6.943912 -0.007453 -12.688841 0.009072 15.10357 -17.88661 2.79005 1.668272 -1.957654 -2.882891 4.727372 -4.177245 5.006326 11.024253 0.0043 -0.004803 12.125206 -3.729329 -2.8912 -0.012959 0.000253 0.019287 1.294492 -1.927993 -1.503684 14.808262 0.566244 3.87866 14.247496 -1.358659 -6.654958 19.660736 0.17654 -0.648353 49.477856 -0.795156 -6.496756 0.359107 -1.508724 -0.033719 20.236391 3.673601 2.323287 18.779636 0.003996 0.004968 10.749997 -0.455729 1.394693 0.002511 0.007157 -0.004949 3.28214 0.292463 -0.594271 21.498669 11.838111 2.285861 8.177276 0.016233 0.004507 18.386486 -3.788363 -4.924057 0.000253 -0.009392 0.001618 3.014458 5.097407 -5.189249 0.026492 -0.195511 10.102015 -5.332447 6.738874 -2.172328 1.625944 -2.076778 -0.729161 0.000281 -0.003368 -0.007885 -8.778894 -1.695221 3.254686 0.006636 0.022991 2.79518 9.505873 -1.530407 -3.877 -1.402632 0.897544 -0.719593 0.000327 0.00058 0.001396 
